<svg id="icons" xmlns="http://www.w3.org/2000/svg" viewBox="0 0 64 64"><title>green-trees</title><g id="green-trees"><path d="M37.23,34.68q0,.43,0,.87c0,.17,0,.34,0,.5s0,.25,0,.38,0,.34-.07.51-.09.59-.15.88-.13.59-.21.87-.16.58-.25.86a2.09,2.09,0,0,0-.08.23q-.13.39-.3.78c-.12.29-.24.58-.38.86l0,0c-.14.29-.29.58-.45.86s-.33.56-.51.83a15.82,15.82,0,0,1-4.8,4.7h0a15.57,15.57,0,1,1-8.36-28.7h0a15.65,15.65,0,0,1,13.26,7.32v0a15.6,15.6,0,0,1,2,4.91c0,.15.07.3.09.45A14.78,14.78,0,0,1,37.23,34.68Z" fill="#98c16a"/><path d="M32.62,34c0,.28,0,.58,0,.86s0,.34,0,.5,0,.26,0,.39a4.5,4.5,0,0,1-.08.51,8.49,8.49,0,0,1-.14.88c-.06.3-.13.58-.21.87s-.16.58-.25.85a1.35,1.35,0,0,0-.08.24c-.09.26-.2.52-.3.78s-.24.58-.38.86c0,0,0,0,0,0a8.68,8.68,0,0,1-.46.85c-.16.29-.32.57-.5.84a15.82,15.82,0,0,1-4.8,4.7h0A15.52,15.52,0,0,1,17,49.54a15.54,15.54,0,0,1,4.57-30.4,15.58,15.58,0,0,1,8.69,6.64v0a15.78,15.78,0,0,1,2,4.9c0,.16.07.31.09.46A15.63,15.63,0,0,1,32.62,34Z" fill="#b0de7c"/><polygon points="42.81 3 58 47.84 42.81 47.84 42.81 3" fill="#83a65b"/><path d="M42.81,47.84H29.93a15.43,15.43,0,0,0,4.78-4.7c.19-.27.35-.55.51-.83s.31-.56.45-.86l0,0a9.37,9.37,0,0,0,.38-.86q.16-.39.3-.78a2.09,2.09,0,0,1,.08-.23c.09-.28.18-.57.25-.86s.15-.58.21-.87.11-.58.15-.88,0-.34.07-.51,0-.25,0-.38,0-.33,0-.5,0-.58,0-.87A14.78,14.78,0,0,0,37,31.84a3.58,3.58,0,0,0-.09-.45,15.37,15.37,0,0,0-2-4.93L42.81,3Z" fill="#98c16a"/><path d="M35.67,41.45c-.14.3-.29.58-.45.86s-.32.56-.51.83a15.59,15.59,0,1,1-13.1-24,15.65,15.65,0,0,1,13.26,7.32,15.37,15.37,0,0,1,2,4.93,3.58,3.58,0,0,1,.09.45" fill="none" stroke="#2d3030" stroke-linecap="round" stroke-linejoin="round" stroke-width="2"/><path d="M36.37,39.78q-.13.39-.3.78a9.37,9.37,0,0,1-.38.86" fill="none" stroke="#2d3030" stroke-linecap="round" stroke-linejoin="round" stroke-width="2"/><path d="M36.91,37.82q-.09.43-.21.87c-.07.29-.16.58-.25.86" fill="none" stroke="#2d3030" stroke-linecap="round" stroke-linejoin="round" stroke-width="2"/><path d="M37.13,36.43c0,.17,0,.34-.07.51" fill="none" stroke="#2d3030" stroke-linecap="round" stroke-linejoin="round" stroke-width="2"/><path d="M37.2,35.55c0,.17,0,.34,0,.5" fill="none" stroke="#2d3030" stroke-linecap="round" stroke-linejoin="round" stroke-width="2"/><line x1="18.01" y1="40.67" x2="21.61" y2="44.25" fill="none" stroke="#2d3030" stroke-linecap="round" stroke-linejoin="round" stroke-width="2"/><line x1="25.22" y1="40.67" x2="21.61" y2="44.25" fill="none" stroke="#2d3030" stroke-linecap="round" stroke-linejoin="round" stroke-width="2"/><polyline points="21.61 44.25 21.61 50.23 21.61 61" fill="none" stroke="#2d3030" stroke-linecap="round" stroke-linejoin="round" stroke-width="2"/><line x1="39.63" y1="40.67" x2="43.23" y2="44.25" fill="none" stroke="#2d3030" stroke-linecap="round" stroke-linejoin="round" stroke-width="2"/><line x1="46.83" y1="40.67" x2="43.23" y2="44.25" fill="none" stroke="#2d3030" stroke-linecap="round" stroke-linejoin="round" stroke-width="2"/><polyline points="43.23 44.25 43.23 47.84 43.23 61" fill="none" stroke="#2d3030" stroke-linecap="round" stroke-linejoin="round" stroke-width="2"/><path d="M43.23,47.84H58L42.81,3,34.87,26.46v0a15.6,15.6,0,0,1,2,4.91c0,.15.07.3.09.45a14.78,14.78,0,0,1,.27,2.84q0,.43,0,.87c0,.17,0,.34,0,.5s0,.25,0,.38,0,.34-.07.51-.09.59-.15.88-.13.59-.21.87-.16.58-.25.86a2.09,2.09,0,0,0-.08.23q-.13.39-.3.78c-.12.29-.24.58-.38.86l0,0c-.14.29-.29.58-.45.86s-.33.56-.51.83a15.82,15.82,0,0,1-4.8,4.7H43.23Z" fill="none" stroke="#2d3030" stroke-linecap="round" stroke-linejoin="round" stroke-width="2"/></g></svg>